<?xml version="1.0" encoding="UTF-8" standalone="no"?>
<!DOCTYPE svg PUBLIC "-//W3C//DTD SVG 1.1//EN" "http://www.w3.org/Graphics/SVG/1.1/DTD/svg11.dtd">
<!-- Created with Vectornator (http://vectornator.io/) -->
<svg height="128.0pt" stroke-miterlimit="10" style="fill-rule:nonzero;clip-rule:evenodd;stroke-linecap:round;stroke-linejoin:round;" version="1.1" viewBox="0 0 128 128" width="128.0pt" xml:space="preserve" xmlns="http://www.w3.org/2000/svg" xmlns:xlink="http://www.w3.org/1999/xlink">
<defs/>
<g id="Tail">
<path d="M107.489 41.0097C78.4883 10.6858 63.6397 24.7359 62.0142 25.1515C52.324 27.6292 40.5911 43.3355 40.9376 41.0298C43.1994 25.9755 73.8148-2.2156 110.182 37.8627C145.925 77.2523 116.918 100.976 91.5233 112.796C79.2875 118.491 152.935 88.5325 107.489 41.0097Z" fill="#00ff28" fill-rule="nonzero" opacity="1" stroke="none"/>
<path d="M42.7949 52.8531C38.0422 42.642 42.4671 30.5115 52.6782 25.7589C62.8892 21.0062 75.0196 25.4312 79.7723 35.6422C84.5249 45.8532 80.1 57.9836 69.889 62.7363C59.678 67.4889 47.5475 63.064 42.7949 52.8531Z" fill="#00ff28" fill-rule="nonzero" opacity="1" stroke="none"/>
<path d="M47.4088 50.9594C43.8204 43.2497 47.1613 34.0909 54.871 30.5025C62.5807 26.9141 71.7396 30.255 75.328 37.9647C78.9164 45.6743 75.5754 54.8333 67.8658 58.4216C60.1561 62.0101 50.9972 58.6691 47.4088 50.9594Z" fill="#4b90dc" fill-rule="nonzero" opacity="1" stroke="none"/>
<path d="M96.0816 30.4558C96.0816 30.4558 95.8807 28.9058 94.5156 26.5874C93.1677 24.2984 91.7265 23.0963 91.7265 23.0963" fill="none" opacity="1" stroke="#00be17" stroke-linecap="round" stroke-linejoin="round" stroke-width="1"/>
<path d="M76.9538 56.2035C76.9538 56.2035 62.7695 57.7109 57.6907 44.4762C50.332 25.3008 68.0363 18.0996 68.0363 18.0996" fill="none" opacity="1" stroke="#00be17" stroke-linecap="square" stroke-linejoin="round" stroke-width="1"/>
<path d="M64.3225 64.1001C64.3225 64.1001 62.3822 54.9011 56.55 48.936C50.7177 42.9709 41.4816 40.43 41.4816 40.43" fill="none" opacity="1" stroke="#00be17" stroke-linecap="round" stroke-linejoin="round" stroke-width="1"/>
<path d="M117.908 47.4095C117.908 47.4095 124.517 63.578 122.53 76.8807C119.984 93.9185 108.713 101.125 108.713 101.125" fill="none" opacity="1" stroke="#00be17" stroke-linecap="round" stroke-linejoin="round" stroke-width="1"/>
</g>
<g id="Tail-copy">
<path d="M119.709 52.7591C106.213 13.0299 86.8224 19.5021 85.1733 19.193C75.3426 17.3503 66.0555 22.9027 59.545 24.8981C67.948 12.2042 107.42-0.638715 123.479 51.0427C139.262 101.836 102.954 111.104 74.9429 111.104C61.4467 111.104 140.858 115.021 119.709 52.7591Z" fill="#00ff28" fill-rule="nonzero" opacity="1" stroke="none"/>
<path d="M56.0596 36.1974C56.0596 24.9345 65.19 15.8041 76.4529 15.8041C87.7158 15.8041 96.8461 24.9345 96.8461 36.1974C96.8461 47.4602 87.7158 56.5906 76.4529 56.5906C65.19 56.5906 56.0596 47.4602 56.0596 36.1974Z" fill="#00ff28" fill-rule="nonzero" opacity="1" stroke="none"/>
<path d="M61.0417 36.4276C61.0417 27.9237 67.9354 21.03 76.4393 21.03C84.9431 21.03 91.8369 27.9237 91.8369 36.4276C91.8369 44.9314 84.9431 51.8252 76.4393 51.8252C67.9354 51.8252 61.0417 44.9314 61.0417 36.4276Z" fill="#4b90dc" fill-rule="nonzero" opacity="1" stroke="none"/>
</g>
<g id="Layer-1-copy">
<path d="M41.6481 53.5308C41.6349 52.142 105.168 103.411 104.424 105.347C90.1153 122.682 64.4631 125.135 47.1281 110.827C29.7931 96.5181 27.3396 70.8659 41.6481 53.5308Z" fill="#00ff28" fill-rule="nonzero" opacity="1" stroke="none"/>
<g opacity="1">
<path d="M69.3418 82.6086L95.6951 106.103C95.6951 106.103 80.2009 115.78 65.1312 112.078C50.801 108.558 41.2236 94.8033 44.4987 82.6086" fill="#00ff28" fill-rule="nonzero" stroke="none"/>
<path d="M44.625 82.0312C44.3147 81.9545 44.0143 82.1585 43.9375 82.4688C41.0487 94.1564 48.632 105.402 58.9375 110.438C64.3554 113.085 70.3372 113.927 76.3125 113.281C78.0738 113.091 79.8383 112.78 81.5625 112.375C85.6233 111.422 89.5565 109.938 93.2812 108.062C93.8671 107.768 94.4586 107.445 95.0312 107.125C95.1006 107.086 95.9561 106.639 95.9688 106.594C96.0366 106.352 96.1531 106.092 96.1875 105.844C96.2006 105.749 95.8742 105.525 95.8125 105.469C95.4527 105.143 95.0811 104.823 94.7188 104.5C93.747 103.635 92.784 102.772 91.8125 101.906C88.56 99.0081 85.315 96.117 82.0625 93.2188C77.9445 89.5492 73.8361 85.8577 69.7188 82.1875C69.4929 81.9861 69.1389 82.0241 68.9375 82.25C68.7361 82.4759 68.7429 82.8299 68.9688 83.0312C73.0857 86.7019 77.1962 90.3599 81.3125 94.0312C85.0354 97.3517 88.7775 100.679 92.5 104C93.1154 104.549 93.7285 105.076 94.3438 105.625C94.479 105.746 94.6149 105.879 94.75 106C94.6619 106.05 94.5886 106.107 94.5 106.156C93.9408 106.468 93.3533 106.775 92.7812 107.062C90.9881 107.963 89.163 108.772 87.2812 109.469C81.7554 111.515 75.7847 112.712 69.875 112.25C57.385 111.275 44.7475 101.213 44.4375 88C44.3957 86.2176 44.6347 84.4767 45.0625 82.75C45.1393 82.4397 44.9353 82.108 44.625 82.0312Z" fill="#00be17" stroke="none"/>
</g>
<g opacity="1">
<path d="M65.4688 72C54.6783 72.6182 43.8843 73.259 33.0938 73.875C32.7916 73.8922 32.5766 74.1666 32.5938 74.4688C32.6109 74.7709 32.8541 74.9859 33.1562 74.9688C43.947 74.357 54.7403 73.7658 65.5312 73.1562C65.8504 73.1381 66.1119 72.8816 66.0938 72.5625C66.0756 72.2434 65.7879 71.9819 65.4688 72Z" fill="#00be17" stroke="none"/>
</g>
</g>
<g id="Layer-1">
<path d="M65.6906 72.5493C65.587 72.6335 65.5544 72.6291 65.1914 72.6462C60.0402 72.8893 23.5276 75.9057 21.5647 73.2687C4.88726 57.3891 12.5053 38.9792 31.3554 38.8116C49.9929 38.6458 65.2743 53.4493 65.7786 72.0027C65.7844 72.2144 65.7908 72.4679 65.6906 72.5493Z" fill="#00ff28" fill-rule="nonzero" opacity="1" stroke="none"/>
<path d="M0.527061 63.6257C0.174387 61.9668 7.80162 52.3407 12.5727 51.1645C17.3438 49.9883 21.6032 67.266 16.8321 68.4422C12.061 69.6184 0.879734 65.2846 0.527061 63.6257Z" fill="#00ff28" fill-rule="nonzero" opacity="1" stroke="none"/>
<path d="M26.1226 55.4995C26.1226 50.6485 30.0551 46.716 34.9061 46.716C39.757 46.716 43.6895 50.6485 43.6895 55.4995C43.6895 60.3505 39.757 64.2829 34.9061 64.2829C30.0551 64.2829 26.1226 60.3505 26.1226 55.4995Z" fill="#ffffff" fill-rule="nonzero" opacity="1" stroke="none"/>
</g>
<g id="Lines">
<path d="M12.715 50.9128C12.715 50.9128 16.9863 53.6021 18.1302 58.0112C19.274 62.4204 17.0449 68.6741 17.0449 68.6741" fill="none" opacity="1" stroke="#00be17" stroke-linecap="butt" stroke-linejoin="round" stroke-width="1.09172"/>
</g>
</svg>
