<?xml version="1.0" encoding="UTF-8" standalone="no"?>
<!DOCTYPE svg PUBLIC "-//W3C//DTD SVG 1.1//EN" "http://www.w3.org/Graphics/SVG/1.1/DTD/svg11.dtd">
<!-- Created with Vectornator (http://vectornator.io/) -->
<svg height="512.0px" stroke-miterlimit="10" style="fill-rule:nonzero;clip-rule:evenodd;stroke-linecap:round;stroke-linejoin:round;" version="1.1" viewBox="0 0 512 512" width="512.0px" xml:space="preserve" xmlns="http://www.w3.org/2000/svg" xmlns:xlink="http://www.w3.org/1999/xlink">
<defs/>
<g id="Layer-1">
<path d="M329.906 57.625C310.101 57.9756 291.716 63.2173 276.312 70.7188C247.919 81.4049 227.656 108.714 227.656 140.844C227.656 182.271 261.26 215.875 302.688 215.875C344.115 215.875 377.688 182.271 377.688 140.844C377.688 114.365 363.938 91.1615 343.219 77.8125C364.29 76.3192 420.331 79.7617 461.781 201.781C498.183 308.947 453.793 362.728 401.312 389.688C385.338 373.012 323.313 321.316 267.875 276.531C267.894 276.701 268.015 276.959 267.844 276.969C228.172 279.21 180.866 284.716 141.188 286.969C137.101 334.329 155.379 382.825 194.812 415.375C256.47 466.266 346.613 459.344 400.094 401.188C466.916 377.662 514.739 321.244 475.656 195.469C442.43 88.5394 381.963 56.7035 329.906 57.625ZM302.625 85.0625C333.904 85.0625 359.281 110.439 359.281 141.719C359.281 172.998 333.904 198.344 302.625 198.344C271.346 198.344 246 172.998 246 141.719C246 110.439 271.346 85.0625 302.625 85.0625ZM185.031 311.125C185.031 311.125 197.592 389.531 262.969 406.906C304.351 417.904 351.25 394.406 351.25 394.406L276.438 311.125L373.344 397.531C373.344 397.531 316.368 433.148 260.938 419.531C208.228 406.584 172.985 355.98 185.031 311.125ZM136.812 150.469C101.121 150.786 76.6419 169.01 69.4062 194.469C69.673 194.661 83.9878 205.026 88.1562 221.094C91.663 234.612 85.0312 259.188 85.0312 259.188C89.4627 265.241 94.5419 271.278 100.781 277.219C103.169 280.426 119.987 281.251 141.406 281.031C141.343 279.924 223.546 274.787 263.406 272.5C261.518 204.286 205.345 149.859 136.812 150.469ZM149.875 179.562C167.718 179.562 182.156 194.001 182.156 211.844C182.156 229.687 167.718 244.156 149.875 244.156C132.032 244.156 117.562 229.687 117.562 211.844C117.562 194.001 132.032 179.562 149.875 179.562ZM67.7188 195.906C50.1696 200.233 22.109 235.648 23.4062 241.75C24.7035 247.852 65.8258 263.795 83.375 259.469C83.601 259.413 83.7754 259.268 83.9688 259.156C84.1514 258.09 87.3883 238.708 83.7812 222.625C81.126 210.786 68.7676 195.965 68.7188 195.906C68.3855 195.897 68.0562 195.823 67.7188 195.906Z" fill="#000000" fill-rule="nonzero" opacity="1" stroke="none"/>
</g>
</svg>
