<?xml version="1.0" encoding="UTF-8" standalone="no"?> <svg xmlns:dc="http://purl.org/dc/elements/1.1/" xmlns:cc="http://creativecommons.org/ns#" xmlns:rdf="http://www.w3.org/1999/02/22-rdf-syntax-ns#" xmlns:svg="http://www.w3.org/2000/svg" xmlns="http://www.w3.org/2000/svg" xmlns:sodipodi="http://sodipodi.sourceforge.net/DTD/sodipodi-0.dtd" xmlns:inkscape="http://www.inkscape.org/namespaces/inkscape" width="1258pt" height="795pt" viewBox="0 0 1258 795" id="svg3043" inkscape:version="0.48.5 r10040" sodipodi:docname="oibird.svg"><metadata id="metadata3061"></metadata><defs id="defs3059"></defs><path fill="#444245" d=" M 0.00 0.00 L 1258.00 0.00 L 1258.00 795.00 L 0.00 795.00 L 0.00 0.00 Z" id="path3045"></path><path style="fill:#95d834" d="m 905.03,71.58 c 131.3927,-11.453203 260.7117,84.98641 288.175,213.88353 32.0756,127.18058 -40.2985,269.9245 -162.2236,318.67606 -52.14789,23.39779 -110.77358,25.12893 -166.52366,18.3614 -0.93948,31.04471 -20.87625,47.01409 -50.56665,26.24182 -46.94599,-18.80394 -91.06491,-46.8923 -139.91183,-59.66656 -4.74633,47.05045 -73.38448,7.52102 -106.70676,29.7475 -46.46964,10.37861 -23.23063,76.30556 -78.6025,76.7875 -15.72745,6.651 -92.66912,24.91974 -41.22859,0.33359 30.68351,-2.34806 52.93603,-34.94258 10.89812,-41.86781 C 426.52782,658.25417 389.83276,633.53384 365.63,637.5 c 3.47548,32.5157 -32.55708,-29.01214 -32.27,12.23 -3.87053,40.38888 -29.96675,-25.76179 -4.97,-34.74 C 266.11028,586.36896 199.24118,540.34004 190.86,466.22 179.47391,426.84906 152.01691,391.46188 120.9625,364.75375 98.662372,355.24725 38.246376,343.13916 92.137813,323.06422 127.94778,300.95543 156.81457,264.84534 202.61594,261.69609 c 49.33768,-7.90428 100.46984,8.5698 135.17054,44.76952 25.74201,39.59607 69.72471,40.6057 109.6993,56.99095 90.51309,46.01718 159.09558,124.5159 249.41332,171.07704 55.15317,29.40401 110.29242,61.49314 170.3684,79.3339 114.35022,23.75029 239.611,-33.54057 293.5384,-137.60025 63.7609,-113.36663 29.267,-269.1925 -76.9609,-344.62725 -102.09851,-79.385459 -259.94764,-68.239942 -350.13347,24.32312 -16.8708,16.64633 -27.89817,31.39222 -4.8745,30.31547 52.02387,-6.17111 87.95583,63.66554 51.81889,102.11243 C 750.4541,328.37495 679.37283,310.64223 671.89,260.7425 666.1348,213.38638 705.03822,175.71322 735.1676,144.23491 781.24599,101.625 842.2783,75.075975 905.03,71.58 z" id="path3047" inkscape:connector-curvature="0" sodipodi:nodetypes="ccccccccccccccccccccccccccccc"></path><path fill="#444245" d=" M 728.43 193.63 C 733.99 192.72 739.59 193.83 745.03 195.01 C 758.06 197.73 769.63 205.89 777.44 216.56 C 785.82 228.07 789.43 242.95 787.10 257.01 C 784.82 271.54 776.28 284.83 764.33 293.31 C 751.76 302.11 735.30 305.65 720.36 301.70 C 706.88 298.76 694.94 290.06 687.37 278.61 C 679.35 266.65 676.07 251.36 679.35 237.25 C 682.87 219.86 695.52 204.69 711.86 197.85 C 717.13 195.61 722.79 194.50 728.43 193.63 Z" id="path3049"></path><path style="fill:#4763a6" d="m 724.87887,211.44591 c 10.88248,-3.30399 22.58826,1.02722 31.2951,7.66717 9.17187,7.35892 14.69168,19.01385 15.02151,30.7039 -1.65803,12.34862 -8.12593,24.61622 -19.26321,30.84526 -8.67722,5.30373 -19.86584,8.05606 -29.56936,3.92146 -15.9765,-4.86657 -27.58607,-20.97455 -27.61413,-37.59001 1.40283,-16.569 13.92108,-31.57297 30.13009,-35.54778 z" id="path3051" inkscape:connector-curvature="0"></path><path fill="#5e8b19" d=" M 170.35 307.50 C 174.71 306.88 179.62 306.92 183.28 309.73 C 187.97 312.88 191.38 318.18 190.82 324.00 C 191.40 329.59 188.11 334.60 183.76 337.78 C 179.49 341.44 173.31 341.32 168.19 339.88 C 164.01 338.12 160.40 334.71 158.44 330.62 C 157.21 326.12 157.04 321.07 158.72 316.67 C 161.17 312.31 165.27 308.37 170.35 307.50 Z" id="path3053"></path><path fill="#d5f591" d=" M 173.36 313.51 C 180.12 313.14 186.93 321.10 183.64 327.60 C 181.95 331.35 178.16 334.25 174.02 334.53 C 168.74 333.82 164.05 329.46 163.75 323.99 C 164.04 318.81 168.28 314.35 173.36 313.51 Z" id="path3055"></path></svg> 