<?xml version="1.0" encoding="UTF-8" standalone="no"?>
<!DOCTYPE svg PUBLIC "-//W3C//DTD SVG 1.1//EN" "http://www.w3.org/Graphics/SVG/1.1/DTD/svg11.dtd">
<!-- Created with Vectornator (http://vectornator.io/) -->
<svg height="512.0px" stroke-miterlimit="10" style="fill-rule:nonzero;clip-rule:evenodd;stroke-linecap:round;stroke-linejoin:round;" version="1.1" viewBox="0 0 512 512" width="512.0px" xml:space="preserve" xmlns="http://www.w3.org/2000/svg" xmlns:xlink="http://www.w3.org/1999/xlink">
<defs>
<path d="M262.281 272.549C222.591 274.823 182.888 277.18 143.198 279.446C142.086 279.509 141.333 279.927 141.396 281.039C141.459 282.15 140.01 287.037 141.122 286.975C180.813 284.724 228.147 279.196 267.838 276.954C269.012 276.887 263.455 272.483 262.281 272.549Z" id="Fill"/>
<path d="M276.424 311.123L373.358 397.541C373.358 397.541 316.366 433.135 260.936 419.518C208.226 406.571 172.998 355.978 185.045 311.123C185.045 311.123 197.6 389.521 262.976 406.896C304.358 417.894 351.248 394.408 351.248 394.408L276.424 311.123Z" id="Fill_2"/>
<path d="M69.1052 194.239C69.1052 194.239 89.1816 202.204 93.059 220.384C98.4106 245.476 86.0012 260.409 86.0012 260.409L83.7083 259.312C83.7083 259.312 87.4818 239.162 83.7734 222.626C81.1129 210.764 68.1057 195.834 68.1057 195.834L69.1052 194.239Z" id="Fill_3"/>
</defs>
<g id="Layer-1">
<path d="M346.403 54.1938C339.338 54.3268 302.509 48.6625 271.04 69.3802C209.636 64.5487 173.811 135.377 167.669 146.133C158.132 144.503 148.133 143.632 137.598 143.726C97.128 144.086 69.1151 165.146 63.0117 194.855C31.6678 207.443 17.4409 237.914 18.7234 243.947C20.078 250.317 62.7737 265.958 84.2337 264.264C88.4518 269.633 93.2632 274.974 98.8048 280.25C101.265 283.555 117.743 284.355 138.928 284.072C133.415 334.917 152.731 387.465 195.121 422.455C261.285 477.065 358.79 468.438 414.447 403.661C447.297 393.388 483.412 365.484 492.353 297.102C496.583 264.752 486.974 206.578 472.231 166.109C455.469 120.101 397.658 53.2284 346.403 54.1938ZM383.405 140.115C395.326 147.619 406.939 157.211 417.953 169.595C501.2 263.203 454.696 339.384 408.218 383.514C406.481 384.614 404.727 385.654 402.959 386.682C377.483 363.093 318.575 313.067 267.175 271.597C266.255 266.908 264.209 251.314 263.816 247.518C269.543 246.311 275.219 244.519 280.753 241.943C290.517 237.398 298.909 231.101 305.714 223.592C348.924 222.233 383.552 186.865 383.552 143.325C383.552 142.24 383.447 141.189 383.405 140.115Z" fill="#004800" fill-rule="nonzero" opacity="0" stroke="none"/>
<g opacity="0">
<path d="M289.562 71.2812C238.935 70.7132 200.466 101.693 182.625 131.781C177.074 141.143 172.256 159.44 172.75 159.281C170.612 173.373 172.41 188.234 178.875 202.125C196.356 239.683 240.973 255.95 278.531 238.469C316.09 220.987 332.387 176.371 314.906 138.812C303.733 114.807 281.447 99.5478 257.031 96.1875C275.522 85.9386 327.806 65.4622 416.844 158.562C557.474 305.619 388.645 406.605 358.125 422.594C451.533 379.117 558.221 291.853 426.75 146.969C376.587 91.6872 329.391 71.7282 289.562 71.2812Z" fill="#00ff28" fill-rule="nonzero" opacity="1" stroke="none"/>
<path d="M195.852 195.157C182.653 166.799 194.942 133.11 223.3 119.912C251.658 106.713 285.347 119.001 298.545 147.359C311.744 175.717 299.455 209.406 271.098 222.605C242.74 235.804 209.051 223.515 195.852 195.157Z" fill="#4b90dc" fill-rule="nonzero" opacity="1" stroke="none"/>
<path d="M374.916 120.613C374.916 120.613 374.674 112.91 369.665 104.375C362.556 92.2632 358.105 90.7268 358.105 90.7268L374.916 120.613Z" fill="#00be17" fill-rule="nonzero" opacity="1" stroke="none"/>
<path d="M306.26 216.17C306.26 216.17 252.215 220.9 231.986 171.292C202.201 98.2491 272.86 72.2436 272.86 72.2436L306.26 216.17Z" fill="#00be17" fill-rule="nonzero" opacity="1" stroke="none"/>
<path d="M259.541 244.582C259.541 244.582 255.479 214.291 229.306 187.662C198.293 156.109 174.992 155.9 174.992 155.9L259.541 244.582Z" fill="#00be17" fill-rule="nonzero" opacity="1" stroke="none"/>
<path d="M454.214 183.146C454.214 183.146 484.988 232.671 481.642 282.908C477.431 346.132 418.053 380.403 418.053 380.403C418.053 380.403 472.743 335.785 473.561 283.059C474.41 228.437 454.214 183.146 454.214 183.146Z" fill="#00be17" fill-rule="nonzero" opacity="1" stroke="none"/>
</g>
<g opacity="1">
<path d="M329.906 57.625C310.101 57.9756 291.716 63.2173 276.312 70.7188C247.919 81.4049 227.656 108.714 227.656 140.844C227.656 182.271 261.26 215.875 302.688 215.875C344.115 215.875 377.688 182.271 377.688 140.844C377.688 114.365 363.938 91.1615 343.219 77.8125C364.29 76.3192 420.331 79.7617 461.781 201.781C527.243 394.5 331.462 414.768 297.125 416.375C400.156 416.375 533.71 382.299 475.656 195.469C442.43 88.5394 381.963 56.7035 329.906 57.625Z" fill="#00ff28" fill-rule="nonzero" opacity="1" stroke="none"/>
<path d="M245.997 141.705C245.997 110.426 271.354 85.0694 302.633 85.0694C333.912 85.0694 359.269 110.426 359.269 141.705C359.269 172.984 333.912 198.341 302.633 198.341C271.354 198.341 245.997 172.984 245.997 141.705Z" fill="#4b90dc" fill-rule="nonzero" opacity="1" stroke="none"/>
</g>
<path d="M174.663 204.615C174.614 199.507 408.304 388.086 405.568 395.207C352.937 458.97 258.582 467.992 194.82 415.364C131.057 362.733 122.033 268.378 174.663 204.615Z" fill="#00ff28" fill-rule="nonzero" opacity="1" stroke="none"/>
<g opacity="1">
<use fill="#00be17" fill-rule="nonzero" stroke="none" xlink:href="#Fill"/>
<mask height="14.4267" id="StrokeMask" maskUnits="userSpaceOnUse" width="127.299" x="140.701" y="272.548">
<rect fill="#000000" height="14.4267" stroke="none" width="127.299" x="140.701" y="272.548"/>
<use fill="#ffffff" fill-rule="evenodd" stroke="none" xlink:href="#Fill"/>
</mask>
<use fill="none" mask="url(#StrokeMask)" stroke="#00be17" stroke-linecap="butt" stroke-linejoin="miter" stroke-width="14" xlink:href="#Fill"/>
</g>
<path d="M261.261 274.926C242.313 275.82 108.011 286.915 100.791 277.216C39.4477 218.807 67.4687 151.091 136.804 150.474C205.357 149.864 261.566 204.315 263.421 272.559C263.442 273.338 262.596 274.863 261.261 274.926Z" fill="#00ff28" fill-rule="nonzero" opacity="1" stroke="none"/>
<path d="M23.4098 241.747C22.1126 235.645 50.1674 200.238 67.7166 195.911C85.2658 191.585 100.933 255.136 83.3837 259.463C65.8344 263.789 24.7071 247.848 23.4098 241.747Z" fill="#00ff28" fill-rule="nonzero" opacity="1" stroke="none"/>
<path d="M117.556 211.856C117.556 194.013 132.021 179.549 149.864 179.549C167.707 179.549 182.172 194.013 182.172 211.856C182.172 229.7 167.707 244.164 149.864 244.164C132.021 244.164 117.556 229.7 117.556 211.856Z" fill="#ffffff" fill-rule="nonzero" opacity="1" stroke="none"/>
<g opacity="1">
<use fill="#ffffff" fill-rule="nonzero" stroke="none" xlink:href="#Fill_2"/>
<mask height="111.5" id="StrokeMask_2" maskUnits="userSpaceOnUse" width="190.681" x="182.677" y="311.123">
<rect fill="#000000" height="111.5" stroke="none" width="190.681" x="182.677" y="311.123"/>
<use fill="#ffffff" fill-rule="evenodd" stroke="none" xlink:href="#Fill_2"/>
</mask>
<use fill="none" mask="url(#StrokeMask_2)" stroke="#00be17" stroke-linecap="butt" stroke-linejoin="miter" stroke-width="14" xlink:href="#Fill_2"/>
</g>
<g opacity="1">
<mask height="66.17" id="StrokeMask_3" maskUnits="userSpaceOnUse" width="26.293" x="68.1057" y="194.239">
<rect fill="#000000" height="66.17" stroke="none" width="26.293" x="68.1057" y="194.239"/>
<use fill="#ffffff" fill-rule="evenodd" stroke="none" xlink:href="#Fill_3"/>
</mask>
<use fill="none" mask="url(#StrokeMask_3)" stroke="#00be17" stroke-linecap="butt" stroke-linejoin="round" stroke-width="14" xlink:href="#Fill_3"/>
</g>
</g>
</svg>
